<svg 
 xmlns="http://www.w3.org/2000/svg"
 xmlns:xlink="http://www.w3.org/1999/xlink"
 width="24px" height="26px">
<path fill-rule="evenodd"  fill="rgb(255, 255, 255)"
 d="M10.898,25.999 C6.688,25.999 2.707,23.959 0.249,20.539 C0.024,20.224 0.000,19.809 0.189,19.471 C0.378,19.133 0.737,18.940 1.135,18.959 L1.298,18.971 C1.477,18.983 1.655,18.996 1.836,18.996 C7.943,18.996 12.911,14.059 12.911,7.991 C12.911,5.695 12.197,3.488 10.846,1.608 C10.620,1.294 10.596,0.879 10.785,0.541 C10.974,0.204 11.344,0.000 11.729,0.028 C18.602,0.459 23.987,6.154 23.987,12.994 C23.987,20.165 18.115,25.999 10.898,25.999 ZM3.235,20.924 C5.282,22.876 8.027,23.999 10.898,23.999 C17.005,23.999 21.973,19.062 21.973,12.994 C21.973,7.895 18.437,3.549 13.618,2.338 C14.478,4.094 14.925,6.014 14.925,7.991 C14.925,14.694 9.797,20.228 3.235,20.924 Z"/>
</svg>