<svg 
 xmlns="http://www.w3.org/2000/svg"
 xmlns:xlink="http://www.w3.org/1999/xlink"
 width="47px" height="48px">
<path fill-rule="evenodd"  fill="rgb(255, 255, 255)"
 d="M40.000,25.000 L40.000,22.000 L47.000,22.000 L47.000,25.000 L40.000,25.000 ZM34.107,10.772 L39.056,5.822 L41.178,7.944 L36.228,12.893 L34.107,10.772 ZM23.500,37.000 C16.044,37.000 10.000,30.956 10.000,23.500 C10.000,16.044 16.044,10.000 23.500,10.000 C30.956,10.000 37.000,16.044 37.000,23.500 C37.000,30.956 30.956,37.000 23.500,37.000 ZM23.500,13.000 C17.701,13.000 13.000,17.701 13.000,23.500 C13.000,29.299 17.701,34.000 23.500,34.000 C29.299,34.000 34.000,29.299 34.000,23.500 C34.000,17.701 29.299,13.000 23.500,13.000 ZM22.000,0.000 L25.000,0.000 L25.000,7.000 L22.000,7.000 L22.000,0.000 ZM5.822,7.944 L7.944,5.822 L12.893,10.772 L10.772,12.893 L5.822,7.944 ZM7.000,25.000 L0.000,25.000 L0.000,22.000 L7.000,22.000 L7.000,25.000 ZM12.893,36.228 L7.944,41.178 L5.822,39.056 L10.772,34.107 L12.893,36.228 ZM25.000,47.000 L22.000,47.000 L22.000,40.000 L25.000,40.000 L25.000,47.000 ZM41.178,39.056 L39.056,41.178 L34.107,36.228 L36.228,34.107 L41.178,39.056 Z"/>
</svg>