<svg 
 xmlns="http://www.w3.org/2000/svg"
 xmlns:xlink="http://www.w3.org/1999/xlink"
 width="42px" height="43px">
<path fill-rule="evenodd"  fill="rgb(255, 255, 255)"
 d="M16.000,9.000 C16.000,18.389 23.611,26.000 33.000,26.000 C36.241,26.000 39.260,25.077 41.837,23.502 C40.598,33.918 31.750,42.000 21.000,42.000 C9.402,42.000 0.000,32.598 0.000,21.000 C0.000,10.250 8.082,1.402 18.498,0.163 C16.924,2.740 16.000,5.759 16.000,9.000 ZM3.000,21.000 C3.000,30.941 11.059,39.000 21.000,39.000 C28.255,39.000 34.492,34.698 37.341,28.514 C35.942,28.824 34.493,29.000 33.000,29.000 C21.954,29.000 13.000,20.046 13.000,9.000 C13.000,7.508 13.176,6.058 13.486,4.659 C7.302,7.508 3.000,13.745 3.000,21.000 Z"/>
</svg>