<svg 
 xmlns="http://www.w3.org/2000/svg"
 xmlns:xlink="http://www.w3.org/1999/xlink"
 width="53px" height="44px">
<path fill-rule="evenodd"  fill="rgb(255, 255, 255)"
 d="M44.373,30.191 C44.051,29.230 43.612,28.323 43.070,27.487 C45.923,25.971 48.147,23.426 49.241,20.342 C47.903,20.767 46.479,21.000 45.000,21.000 C37.268,21.000 31.000,14.732 31.000,7.000 C31.000,6.093 31.094,5.209 31.258,4.350 C28.045,5.937 25.580,8.806 24.541,12.292 C23.561,12.109 22.556,12.003 21.524,12.001 C23.263,5.266 29.268,0.252 36.495,0.026 C34.937,1.924 34.000,4.352 34.000,7.000 C34.000,13.075 38.925,18.000 45.000,18.000 C48.119,18.000 50.928,16.696 52.930,14.611 C52.969,15.070 53.000,15.531 53.000,16.000 C53.000,22.176 49.496,27.524 44.373,30.191 ZM35.505,25.361 C39.256,26.447 42.000,29.900 42.000,34.000 C42.000,38.971 37.971,43.000 33.000,43.000 L10.000,43.000 C4.477,43.000 0.000,38.523 0.000,33.000 C0.000,27.697 4.131,23.370 9.350,23.033 C11.591,18.290 16.405,15.000 22.000,15.000 C28.471,15.000 33.901,19.396 35.505,25.361 ZM11.389,26.139 C10.940,26.049 10.476,26.000 10.000,26.000 C6.134,26.000 3.000,29.134 3.000,33.000 C3.000,36.866 6.134,40.000 10.000,40.000 L33.000,40.000 C36.314,40.000 39.000,37.314 39.000,34.000 C39.000,30.686 36.314,28.000 33.000,28.000 C32.983,28.000 32.967,28.005 32.950,28.005 C32.446,22.397 27.739,18.000 22.000,18.000 C16.916,18.000 12.650,21.454 11.389,26.139 Z"/>
</svg>