<svg 
 xmlns="http://www.w3.org/2000/svg"
 xmlns:xlink="http://www.w3.org/1999/xlink"
 width="56px" height="47px">
<path fill-rule="evenodd"  fill="rgb(255, 255, 255)"
 d="M49.000,22.000 L49.000,19.000 L56.000,19.000 L56.000,22.000 L49.000,22.000 ZM43.985,9.893 L48.935,4.944 L51.056,7.065 L46.107,12.015 L43.985,9.893 ZM41.812,28.875 C41.108,28.111 40.309,27.439 39.429,26.879 C41.569,25.558 43.000,23.200 43.000,20.500 C43.000,16.358 39.642,13.000 35.500,13.000 C32.798,13.000 30.437,14.434 29.117,16.577 C28.199,16.152 27.237,15.811 26.239,15.554 C28.007,12.250 31.490,10.000 35.500,10.000 C41.299,10.000 46.000,14.701 46.000,20.500 C46.000,23.927 44.353,26.961 41.812,28.875 ZM34.000,0.000 L37.000,0.000 L37.000,7.000 L34.000,7.000 L34.000,0.000 ZM19.944,7.065 L22.065,4.944 L27.015,9.893 L24.893,12.015 L19.944,7.065 ZM35.505,28.361 C39.256,29.447 42.000,32.900 42.000,37.000 C42.000,41.971 37.971,46.000 33.000,46.000 L10.000,46.000 C4.477,46.000 0.000,41.523 0.000,36.000 C0.000,30.697 4.131,26.370 9.350,26.033 C11.591,21.290 16.406,18.000 22.000,18.000 C28.471,18.000 33.901,22.396 35.505,28.361 ZM11.389,29.139 C10.940,29.049 10.476,29.000 10.000,29.000 C6.134,29.000 3.000,32.134 3.000,36.000 C3.000,39.866 6.134,43.000 10.000,43.000 L33.000,43.000 C36.314,43.000 39.000,40.314 39.000,37.000 C39.000,33.686 36.314,31.000 33.000,31.000 C32.983,31.000 32.967,31.005 32.950,31.005 C32.446,25.397 27.739,21.000 22.000,21.000 C16.916,21.000 12.650,24.454 11.389,29.139 ZM51.056,33.935 L48.935,36.056 L43.985,31.107 L46.107,28.985 L51.056,33.935 Z"/>
</svg>