<svg 
 xmlns="http://www.w3.org/2000/svg"
 xmlns:xlink="http://www.w3.org/1999/xlink"
 width="49px" height="36px">
<path fill-rule="evenodd"  fill="rgb(255, 255, 255)"
 d="M35.040,35.987 C35.004,35.988 16.054,36.000 7.001,36.000 C3.140,36.000 0.000,32.859 0.000,29.000 C0.000,26.643 1.174,24.560 2.965,23.291 C1.940,22.519 1.015,21.604 0.249,20.539 C0.024,20.224 0.000,19.809 0.189,19.471 C0.378,19.133 0.737,18.940 1.135,18.959 L1.298,18.971 C1.477,18.983 1.655,18.996 1.836,18.996 C7.943,18.996 12.911,14.059 12.911,7.991 C12.911,5.695 12.197,3.488 10.846,1.608 C10.620,1.294 10.596,0.879 10.785,0.541 C10.973,0.203 11.344,0.000 11.729,0.028 C18.144,0.430 23.235,5.424 23.889,11.648 C26.577,8.765 30.396,7.000 34.498,7.000 C42.494,7.000 49.000,13.505 49.000,21.500 C49.000,29.334 42.868,35.697 35.040,35.987 ZM21.973,12.994 C21.973,7.896 18.437,3.549 13.618,2.338 C14.478,4.094 14.925,6.014 14.925,7.991 C14.925,14.693 9.797,20.228 3.235,20.924 C3.786,21.449 4.402,21.888 5.044,22.285 C5.666,22.103 6.321,22.001 7.001,22.001 C7.591,22.001 8.172,22.074 8.735,22.218 C10.255,18.511 13.923,16.000 17.988,16.000 C18.990,16.000 19.971,16.147 20.916,16.437 C21.182,15.725 21.502,15.043 21.870,14.394 C21.930,13.934 21.973,13.469 21.973,12.994 ZM34.498,9.000 C28.976,9.000 24.042,12.705 22.500,18.009 C22.420,18.284 22.226,18.512 21.967,18.634 C21.708,18.757 21.409,18.763 21.145,18.648 C20.144,18.218 19.082,18.000 17.988,18.000 C14.457,18.000 11.300,20.369 10.312,23.760 C10.232,24.036 10.038,24.262 9.780,24.385 C9.521,24.507 9.223,24.514 8.959,24.401 C8.339,24.135 7.680,24.001 7.001,24.001 C4.244,24.001 2.000,26.243 2.000,29.000 C2.000,31.757 4.244,34.000 7.001,34.000 C16.054,34.000 35.002,33.988 35.002,33.988 C41.714,33.739 47.000,28.253 47.000,21.500 C47.000,14.608 41.391,9.000 34.498,9.000 Z"/>
</svg>