<svg 
 xmlns="http://www.w3.org/2000/svg"
 xmlns:xlink="http://www.w3.org/1999/xlink"
 width="52px" height="44px">
<path fill-rule="evenodd"  fill="rgb(255, 255, 255)"
 d="M42.000,35.000 L41.000,35.000 L41.000,32.000 L42.000,32.000 C45.866,32.000 49.000,28.866 49.000,25.000 C49.000,21.134 45.866,18.000 42.000,18.000 C41.618,18.000 41.245,18.039 40.879,18.098 C40.942,17.572 41.000,17.044 41.000,16.500 C41.000,9.044 34.956,3.000 27.500,3.000 C20.044,3.000 14.000,9.044 14.000,16.500 C14.000,16.530 14.004,16.559 14.005,16.589 C13.076,16.212 12.064,16.000 11.000,16.000 C6.582,16.000 3.000,19.582 3.000,24.000 C3.000,28.419 6.582,32.000 11.000,32.000 L11.000,35.000 C4.925,35.000 0.000,30.075 0.000,24.000 C0.000,17.925 4.925,13.000 11.000,13.000 C11.127,13.000 11.250,13.015 11.375,13.019 C12.974,5.580 19.583,0.000 27.500,0.000 C36.171,0.000 43.265,6.692 43.934,15.191 C48.531,16.092 52.000,20.139 52.000,25.000 C52.000,30.523 47.523,35.000 42.000,35.000 ZM17.000,31.000 L14.000,31.000 L14.000,25.000 L17.000,25.000 L17.000,31.000 ZM17.000,40.000 L14.000,40.000 L14.000,34.000 L17.000,34.000 L17.000,40.000 ZM24.000,34.000 L21.000,34.000 L21.000,28.000 L24.000,28.000 L24.000,34.000 ZM24.000,43.000 L21.000,43.000 L21.000,37.000 L24.000,37.000 L24.000,43.000 ZM31.000,31.000 L28.000,31.000 L28.000,25.000 L31.000,25.000 L31.000,31.000 ZM31.000,40.000 L28.000,40.000 L28.000,34.000 L31.000,34.000 L31.000,40.000 ZM38.000,34.000 L35.000,34.000 L35.000,28.000 L38.000,28.000 L38.000,34.000 ZM38.000,43.000 L35.000,43.000 L35.000,37.000 L38.000,37.000 L38.000,43.000 Z"/>
</svg>