<svg 
 xmlns="http://www.w3.org/2000/svg"
 xmlns:xlink="http://www.w3.org/1999/xlink"
 width="56px" height="56px">
<path fill-rule="evenodd"  fill="rgb(255, 255, 255)"
 d="M49.000,22.000 L49.000,19.000 L56.000,19.000 L56.000,22.000 L49.000,22.000 ZM43.985,9.894 L48.935,4.944 L51.056,7.065 L46.107,12.015 L43.985,9.894 ZM41.812,28.875 C41.108,28.111 40.309,27.439 39.429,26.879 C41.569,25.559 43.000,23.200 43.000,20.500 C43.000,16.358 39.642,13.000 35.500,13.000 C32.798,13.000 30.437,14.434 29.117,16.577 C28.199,16.152 27.237,15.811 26.239,15.554 C28.007,12.250 31.490,10.000 35.500,10.000 C41.299,10.000 46.000,14.701 46.000,20.500 C46.000,23.927 44.353,26.961 41.812,28.875 ZM34.000,0.000 L37.000,0.000 L37.000,7.000 L34.000,7.000 L34.000,0.000 ZM19.944,7.065 L22.065,4.944 L27.015,9.894 L24.893,12.015 L19.944,7.065 ZM35.505,28.361 C39.256,29.447 42.000,32.900 42.000,37.000 C42.000,41.625 38.510,45.431 34.021,45.938 L35.137,42.590 C37.392,41.727 39.000,39.558 39.000,37.000 C39.000,33.686 36.314,31.000 33.000,31.000 C32.983,31.000 32.967,31.005 32.950,31.005 C32.446,25.397 27.739,21.000 22.000,21.000 C16.916,21.000 12.650,24.454 11.389,29.139 C10.940,29.049 10.476,29.000 10.000,29.000 C6.134,29.000 3.000,32.134 3.000,36.000 C3.000,38.169 3.987,40.108 5.536,41.392 L4.542,44.373 C1.810,42.588 0.000,39.508 0.000,36.000 C0.000,30.697 4.131,26.370 9.350,26.033 C11.591,21.290 16.405,18.000 22.000,18.000 C28.471,18.000 33.901,22.396 35.505,28.361 ZM13.000,37.000 L8.000,52.000 L5.000,52.000 L10.000,37.000 L13.000,37.000 ZM19.000,40.000 L14.000,55.000 L11.000,55.000 L16.000,40.000 L19.000,40.000 ZM27.000,37.000 L22.000,52.000 L19.000,52.000 L24.000,37.000 L27.000,37.000 ZM33.000,40.000 L28.000,55.000 L25.000,55.000 L30.000,40.000 L33.000,40.000 ZM51.056,33.935 L48.935,36.056 L43.985,31.107 L46.107,28.985 L51.056,33.935 Z"/>
</svg>