<svg 
 xmlns="http://www.w3.org/2000/svg"
 xmlns:xlink="http://www.w3.org/1999/xlink"
 width="49px" height="46px">
<path fill-rule="evenodd"  fill="rgb(255, 255, 255)"
 d="M35.040,35.987 C35.033,35.987 34.290,35.988 33.054,35.989 C33.035,35.990 33.019,36.000 33.000,36.000 C32.448,36.000 32.000,35.552 32.000,35.000 C32.000,34.448 32.448,34.000 33.000,34.000 C33.000,34.000 33.000,34.000 33.000,34.000 L33.000,33.989 C34.255,33.989 35.001,33.988 35.001,33.988 C41.714,33.739 47.000,28.253 47.000,21.500 C47.000,14.608 41.391,9.000 34.498,9.000 C28.976,9.000 24.042,12.705 22.500,18.009 C22.420,18.284 22.226,18.512 21.967,18.634 C21.708,18.757 21.409,18.763 21.145,18.648 C20.144,18.218 19.082,18.000 17.988,18.000 C14.457,18.000 11.300,20.369 10.312,23.760 C10.232,24.035 10.038,24.262 9.780,24.385 C9.521,24.507 9.223,24.514 8.959,24.401 C8.339,24.135 7.680,24.001 7.001,24.001 C4.244,24.001 2.000,26.243 2.000,29.000 C2.000,31.757 4.244,34.000 7.001,34.000 C7.622,34.000 8.294,34.000 9.000,34.000 L9.000,34.000 C9.552,34.000 10.000,34.448 10.000,35.000 C10.000,35.552 9.552,36.000 9.000,36.000 C9.000,36.000 9.000,36.000 9.000,36.000 C8.294,36.000 7.622,36.000 7.001,36.000 C3.140,36.000 -0.000,32.859 -0.000,29.000 C-0.000,26.643 1.180,24.564 2.971,23.296 C1.943,22.523 1.017,21.606 0.249,20.539 C0.024,20.224 0.000,19.809 0.189,19.471 C0.378,19.133 0.737,18.940 1.135,18.959 L1.298,18.971 C1.477,18.983 1.655,18.996 1.836,18.996 C7.943,18.996 12.911,14.059 12.911,7.991 C12.911,5.695 12.197,3.488 10.846,1.608 C10.620,1.294 10.596,0.879 10.785,0.541 C10.973,0.203 11.344,0.000 11.729,0.028 C18.144,0.430 23.235,5.424 23.889,11.648 C26.577,8.765 30.396,7.000 34.498,7.000 C42.494,7.000 49.000,13.505 49.000,21.500 C49.000,29.334 42.867,35.697 35.040,35.987 ZM21.973,12.994 C21.973,7.896 18.437,3.549 13.618,2.338 C14.478,4.094 14.925,6.014 14.925,7.991 C14.925,14.694 9.797,20.228 3.235,20.924 C3.795,21.458 4.423,21.903 5.078,22.303 C5.693,22.126 6.329,22.001 7.001,22.001 C7.591,22.001 8.172,22.074 8.735,22.218 C10.255,18.511 13.923,16.000 17.988,16.000 C18.990,16.000 19.971,16.147 20.916,16.437 C21.182,15.725 21.502,15.043 21.870,14.394 C21.930,13.934 21.973,13.469 21.973,12.994 ZM17.634,28.438 C17.910,27.959 18.522,27.795 19.000,28.072 C19.478,28.348 19.642,28.959 19.366,29.438 L12.366,41.562 C12.090,42.040 11.478,42.204 11.000,41.928 C10.522,41.652 10.358,41.040 10.634,40.562 L17.634,28.438 ZM21.890,31.438 C22.166,30.959 22.778,30.796 23.256,31.072 C23.735,31.348 23.898,31.959 23.622,32.438 L16.622,44.562 C16.346,45.040 15.735,45.204 15.256,44.928 C14.778,44.652 14.614,44.040 14.890,43.562 L21.890,31.438 ZM29.634,28.438 C29.910,27.959 30.522,27.795 31.000,28.072 C31.478,28.348 31.642,28.959 31.366,29.438 L24.366,41.562 C24.090,42.040 23.478,42.204 23.000,41.928 C22.522,41.652 22.358,41.040 22.634,40.562 L29.634,28.438 Z"/>
</svg>