<svg 
 xmlns="http://www.w3.org/2000/svg"
 xmlns:xlink="http://www.w3.org/1999/xlink"
 width="54px" height="53px">
<path fill-rule="evenodd"  fill="rgb(255, 255, 255)"
 d="M45.373,30.191 C45.051,29.230 44.612,28.323 44.070,27.487 C46.923,25.971 49.147,23.426 50.241,20.342 C48.903,20.767 47.479,21.000 46.000,21.000 C38.268,21.000 32.000,14.732 32.000,7.000 C32.000,6.093 32.094,5.209 32.258,4.350 C29.045,5.937 26.580,8.806 25.541,12.292 C24.561,12.109 23.556,12.003 22.524,12.001 C24.263,5.266 30.268,0.252 37.495,0.026 C35.937,1.924 35.000,4.352 35.000,7.000 C35.000,13.075 39.925,18.000 46.000,18.000 C49.119,18.000 51.928,16.697 53.930,14.611 C53.969,15.070 54.000,15.531 54.000,16.000 C54.000,22.176 50.496,27.524 45.373,30.191 ZM35.505,25.361 C39.256,26.447 42.000,29.900 42.000,34.000 C42.000,38.625 38.510,42.431 34.021,42.938 L35.137,39.590 C37.392,38.727 39.000,36.558 39.000,34.000 C39.000,30.686 36.314,28.000 33.000,28.000 C32.983,28.000 32.967,28.005 32.950,28.005 C32.446,22.397 27.739,18.000 22.000,18.000 C16.916,18.000 12.650,21.454 11.389,26.139 C10.940,26.049 10.476,26.000 10.000,26.000 C6.134,26.000 3.000,29.134 3.000,33.000 C3.000,35.169 3.987,37.108 5.536,38.392 L4.542,41.373 C1.810,39.588 0.000,36.508 0.000,33.000 C0.000,27.697 4.131,23.370 9.350,23.033 C11.591,18.290 16.405,15.000 22.000,15.000 C28.471,15.000 33.901,19.396 35.505,25.361 ZM13.000,34.000 L8.000,49.000 L5.000,49.000 L10.000,34.000 L13.000,34.000 ZM19.000,37.000 L14.000,52.000 L11.000,52.000 L16.000,37.000 L19.000,37.000 ZM27.000,34.000 L22.000,49.000 L19.000,49.000 L24.000,34.000 L27.000,34.000 ZM33.000,37.000 L28.000,52.000 L25.000,52.000 L30.000,37.000 L33.000,37.000 Z"/>
</svg>