<svg 
 xmlns="http://www.w3.org/2000/svg"
 xmlns:xlink="http://www.w3.org/1999/xlink"
 width="39px" height="38px">
<path fill-rule="evenodd"  fill="rgb(255, 255, 255)"
 d="M39.000,20.000 L32.754,20.000 L36.026,24.000 L34.526,26.500 L28.433,20.000 L22.098,20.000 L25.257,25.471 L33.948,27.502 L32.533,30.051 L27.418,29.214 L30.549,34.638 L27.951,36.138 L24.829,30.731 L23.007,35.551 L20.092,35.502 L22.669,26.990 L19.500,21.500 L16.348,26.960 L18.935,35.502 L16.020,35.551 L14.187,30.703 L11.049,36.138 L8.451,34.638 L11.579,29.219 L6.494,30.051 L5.078,27.502 L13.739,25.478 L16.902,20.000 L10.594,20.000 L4.500,26.500 L3.000,24.000 L6.273,20.000 L0.000,20.000 L0.000,17.000 L6.273,17.000 L3.000,13.000 L4.500,10.500 L10.594,17.000 L16.902,17.000 L13.739,11.522 L5.078,9.498 L6.494,6.949 L11.579,7.781 L8.451,2.363 L11.049,0.863 L14.187,6.297 L16.020,1.449 L18.935,1.498 L16.348,10.041 L19.500,15.500 L22.669,10.011 L20.092,1.498 L23.007,1.449 L24.829,6.270 L27.951,0.863 L30.549,2.363 L27.418,7.786 L32.533,6.949 L33.948,9.498 L25.257,11.529 L22.098,17.000 L28.433,17.000 L34.526,10.500 L36.026,13.000 L32.754,17.000 L39.000,17.000 L39.000,20.000 Z"/>
</svg>