<svg 
 xmlns="http://www.w3.org/2000/svg"
 xmlns:xlink="http://www.w3.org/1999/xlink"
 width="49px" height="47px">
<path fill-rule="evenodd"  fill="rgb(255, 255, 255)"
 d="M35.040,35.987 C35.035,35.987 34.674,35.988 34.058,35.988 C34.038,35.989 34.020,36.000 34.000,36.000 C33.448,36.000 33.000,35.552 33.000,35.000 C33.000,34.448 33.448,34.000 34.000,34.000 L34.000,34.000 L34.000,33.989 C34.636,33.989 35.002,33.988 35.002,33.988 C41.714,33.739 47.000,28.253 47.000,21.500 C47.000,14.608 41.391,9.000 34.498,9.000 C28.976,9.000 24.042,12.705 22.500,18.009 C22.420,18.284 22.226,18.512 21.967,18.634 C21.708,18.757 21.409,18.763 21.145,18.648 C20.144,18.218 19.082,18.000 17.988,18.000 C14.457,18.000 11.300,20.369 10.312,23.760 C10.232,24.035 10.038,24.262 9.780,24.385 C9.521,24.507 9.223,24.514 8.959,24.401 C8.339,24.135 7.680,24.001 7.001,24.001 C4.244,24.001 2.000,26.243 2.000,29.000 C2.000,31.757 4.244,34.000 7.001,34.000 C7.622,34.000 8.294,34.000 9.000,34.000 L9.000,34.000 C9.552,34.000 10.000,34.448 10.000,35.000 C10.000,35.552 9.552,36.000 9.000,36.000 C9.000,36.000 9.000,36.000 9.000,36.000 C8.294,36.000 7.622,36.000 7.001,36.000 C3.140,36.000 0.000,32.859 0.000,29.000 C0.000,26.643 1.180,24.564 2.971,23.296 C1.943,22.523 1.017,21.606 0.249,20.539 C0.024,20.224 0.000,19.809 0.189,19.471 C0.378,19.133 0.737,18.940 1.135,18.959 L1.298,18.971 C1.477,18.983 1.655,18.996 1.836,18.996 C7.943,18.996 12.911,14.059 12.911,7.991 C12.911,5.695 12.197,3.488 10.846,1.608 C10.620,1.294 10.596,0.879 10.785,0.541 C10.973,0.203 11.344,0.000 11.729,0.028 C18.144,0.430 23.235,5.424 23.889,11.648 C26.577,8.765 30.396,7.000 34.498,7.000 C42.494,7.000 49.000,13.505 49.000,21.500 C49.000,29.334 42.868,35.697 35.040,35.987 ZM21.973,12.994 C21.973,7.896 18.437,3.549 13.618,2.338 C14.478,4.094 14.925,6.014 14.925,7.991 C14.925,14.693 9.797,20.228 3.235,20.924 C3.795,21.458 4.423,21.903 5.078,22.303 C5.693,22.126 6.329,22.001 7.001,22.001 C7.591,22.001 8.172,22.074 8.735,22.218 C10.255,18.511 13.923,16.000 17.988,16.000 C18.990,16.000 19.971,16.147 20.916,16.437 C21.182,15.725 21.502,15.043 21.870,14.394 C21.930,13.934 21.973,13.469 21.973,12.994 ZM9.511,40.983 L10.645,40.983 L10.078,40.001 C9.940,39.761 10.022,39.456 10.261,39.318 C10.500,39.179 10.806,39.261 10.944,39.501 L11.511,40.483 L12.078,39.501 C12.216,39.261 12.521,39.179 12.761,39.318 C13.000,39.456 13.082,39.761 12.944,40.001 L12.377,40.983 L13.511,40.983 C13.787,40.983 14.011,41.206 14.011,41.483 C14.011,41.759 13.787,41.983 13.511,41.983 L12.377,41.983 L12.944,42.965 C13.082,43.204 13.000,43.510 12.761,43.648 C12.521,43.786 12.216,43.704 12.078,43.465 L11.519,42.497 C11.512,42.497 11.506,42.502 11.500,42.502 L10.944,43.465 C10.806,43.704 10.500,43.786 10.261,43.648 C10.022,43.510 9.940,43.204 10.078,42.965 L10.634,42.002 C10.630,41.996 10.631,41.988 10.628,41.983 L9.511,41.983 C9.235,41.983 9.011,41.759 9.011,41.483 C9.011,41.206 9.235,40.983 9.511,40.983 ZM14.533,43.983 L15.667,43.983 L15.100,43.001 C14.962,42.761 15.044,42.456 15.283,42.318 C15.522,42.179 15.828,42.261 15.966,42.501 L16.533,43.483 L17.100,42.501 C17.238,42.261 17.544,42.179 17.783,42.318 C18.022,42.456 18.104,42.761 17.966,43.001 L17.399,43.983 L18.533,43.983 C18.809,43.983 19.033,44.206 19.033,44.483 C19.033,44.759 18.809,44.983 18.533,44.983 L17.399,44.983 L17.966,45.965 C18.104,46.204 18.022,46.509 17.783,46.648 C17.544,46.786 17.238,46.704 17.100,46.465 L16.541,45.497 C16.535,45.497 16.529,45.501 16.522,45.502 L15.966,46.465 C15.828,46.704 15.522,46.786 15.283,46.648 C15.044,46.509 14.962,46.204 15.100,45.965 L15.656,45.002 C15.653,44.996 15.654,44.988 15.651,44.983 L14.533,44.983 C14.257,44.983 14.033,44.759 14.033,44.483 C14.033,44.206 14.257,43.983 14.533,43.983 ZM18.246,40.658 C18.007,40.520 17.925,40.214 18.063,39.975 L18.619,39.012 C18.616,39.006 18.617,38.999 18.614,38.993 L17.496,38.993 C17.220,38.993 16.996,38.769 16.996,38.493 C16.996,38.217 17.220,37.993 17.496,37.993 L18.630,37.993 L18.063,37.011 C17.925,36.772 18.007,36.466 18.246,36.328 C18.485,36.190 18.791,36.272 18.929,36.511 L19.496,37.493 L20.063,36.511 C20.201,36.272 20.507,36.190 20.746,36.328 C20.985,36.466 21.067,36.772 20.929,37.011 L20.362,37.993 L21.496,37.993 C21.772,37.993 21.996,38.217 21.996,38.493 C21.996,38.769 21.772,38.993 21.496,38.993 L20.362,38.993 L20.929,39.975 C21.067,40.214 20.985,40.520 20.746,40.658 C20.507,40.796 20.201,40.714 20.063,40.475 L19.504,39.507 C19.497,39.507 19.492,39.512 19.485,39.512 L18.929,40.475 C18.791,40.714 18.485,40.796 18.246,40.658 ZM22.483,40.983 L23.617,40.983 L23.050,40.001 C22.912,39.761 22.994,39.456 23.233,39.318 C23.473,39.179 23.778,39.261 23.916,39.501 L24.483,40.483 L25.050,39.501 C25.188,39.261 25.494,39.179 25.733,39.318 C25.973,39.456 26.055,39.761 25.916,40.001 L25.349,40.983 L26.483,40.983 C26.760,40.983 26.983,41.206 26.983,41.483 C26.983,41.759 26.760,41.983 26.483,41.983 L25.349,41.983 L25.916,42.965 C26.055,43.204 25.973,43.510 25.733,43.648 C25.494,43.786 25.188,43.704 25.050,43.465 L24.492,42.497 C24.485,42.497 24.479,42.502 24.472,42.502 L23.916,43.465 C23.778,43.704 23.473,43.786 23.233,43.648 C22.994,43.510 22.912,43.204 23.050,42.965 L23.606,42.002 C23.603,41.996 23.604,41.988 23.601,41.983 L22.483,41.983 C22.207,41.983 21.983,41.759 21.983,41.483 C21.983,41.206 22.207,40.983 22.483,40.983 ZM17.005,35.493 C17.005,35.769 16.781,35.993 16.505,35.993 L15.371,35.993 L15.938,36.975 C16.076,37.214 15.994,37.520 15.755,37.658 C15.516,37.796 15.210,37.714 15.072,37.475 L14.513,36.507 C14.506,36.507 14.501,36.512 14.494,36.512 L13.938,37.475 C13.800,37.714 13.494,37.796 13.255,37.658 C13.016,37.520 12.934,37.214 13.072,36.975 L13.628,36.012 C13.624,36.006 13.626,35.999 13.622,35.993 L12.505,35.993 C12.229,35.993 12.005,35.769 12.005,35.493 C12.005,35.217 12.229,34.993 12.505,34.993 L13.639,34.993 L13.072,34.011 C12.934,33.772 13.016,33.466 13.255,33.328 C13.494,33.190 13.800,33.272 13.938,33.511 L14.505,34.493 L15.072,33.511 C15.210,33.272 15.516,33.190 15.755,33.328 C15.994,33.466 16.076,33.772 15.938,34.011 L15.371,34.993 L16.505,34.993 C16.781,34.993 17.005,35.217 17.005,35.493 ZM21.018,29.470 C21.018,29.746 20.795,29.970 20.518,29.970 L19.384,29.970 L19.951,30.952 C20.089,31.191 20.007,31.497 19.768,31.635 C19.529,31.773 19.223,31.691 19.085,31.452 L18.527,30.484 C18.520,30.484 18.514,30.489 18.507,30.489 L17.951,31.452 C17.813,31.691 17.508,31.773 17.268,31.635 C17.029,31.497 16.947,31.191 17.085,30.952 L17.641,29.989 C17.638,29.983 17.639,29.976 17.636,29.970 L16.518,29.970 C16.242,29.970 16.018,29.746 16.018,29.470 C16.018,29.194 16.242,28.970 16.518,28.970 L17.652,28.970 L17.085,27.988 C16.947,27.749 17.029,27.443 17.268,27.305 C17.508,27.167 17.813,27.249 17.951,27.488 L18.518,28.470 L19.085,27.488 C19.223,27.249 19.529,27.167 19.768,27.305 C20.007,27.443 20.089,27.749 19.951,27.988 L19.384,28.970 L20.518,28.970 C20.795,28.970 21.018,29.194 21.018,29.470 ZM26.010,32.470 C26.010,32.746 25.786,32.970 25.510,32.970 L24.376,32.970 L24.943,33.952 C25.081,34.191 24.999,34.497 24.760,34.635 C24.520,34.773 24.215,34.691 24.076,34.452 L23.518,33.484 C23.511,33.484 23.505,33.489 23.499,33.489 L22.942,34.452 C22.804,34.691 22.499,34.773 22.259,34.635 C22.020,34.497 21.938,34.191 22.076,33.952 L22.632,32.989 C22.629,32.983 22.630,32.976 22.627,32.970 L21.510,32.970 C21.233,32.970 21.010,32.746 21.010,32.470 C21.010,32.194 21.233,31.970 21.510,31.970 L22.643,31.970 L22.076,30.988 C21.938,30.749 22.020,30.443 22.259,30.305 C22.499,30.167 22.804,30.249 22.942,30.488 L23.509,31.470 L24.076,30.488 C24.215,30.249 24.520,30.167 24.760,30.305 C24.999,30.443 25.081,30.749 24.943,30.988 L24.376,31.970 L25.510,31.970 C25.786,31.970 26.010,32.194 26.010,32.470 ZM27.632,36.012 C27.628,36.006 27.630,35.999 27.626,35.993 L26.509,35.993 C26.233,35.993 26.009,35.769 26.009,35.493 C26.009,35.217 26.233,34.993 26.509,34.993 L27.643,34.993 L27.076,34.011 C26.938,33.772 27.020,33.466 27.259,33.328 C27.498,33.190 27.804,33.272 27.942,33.511 L28.509,34.493 L29.076,33.511 C29.214,33.272 29.520,33.190 29.759,33.328 C29.998,33.466 30.080,33.772 29.942,34.011 L29.375,34.993 L30.509,34.993 C30.785,34.993 31.009,35.217 31.009,35.493 C31.009,35.769 30.785,35.993 30.509,35.993 L29.375,35.993 L29.942,36.975 C30.080,37.214 29.998,37.520 29.759,37.658 C29.520,37.796 29.214,37.714 29.076,37.475 L28.517,36.507 C28.510,36.507 28.504,36.512 28.498,36.512 L27.942,37.475 C27.804,37.714 27.498,37.796 27.259,37.658 C27.020,37.520 26.938,37.214 27.076,36.975 L27.632,36.012 ZM30.241,31.635 C30.002,31.497 29.920,31.191 30.058,30.952 L30.614,29.989 C30.611,29.983 30.612,29.976 30.609,29.970 L29.491,29.970 C29.215,29.970 28.991,29.746 28.991,29.470 C28.991,29.194 29.215,28.970 29.491,28.970 L30.625,28.970 L30.058,27.988 C29.920,27.749 30.002,27.443 30.241,27.305 C30.480,27.167 30.786,27.249 30.924,27.488 L31.491,28.470 L32.058,27.488 C32.196,27.249 32.502,27.167 32.741,27.305 C32.980,27.443 33.062,27.749 32.924,27.988 L32.357,28.970 L33.491,28.970 C33.767,28.970 33.991,29.194 33.991,29.470 C33.991,29.746 33.767,29.970 33.491,29.970 L32.357,29.970 L32.924,30.952 C33.062,31.191 32.980,31.497 32.741,31.635 C32.502,31.773 32.196,31.691 32.058,31.452 L31.499,30.484 C31.493,30.484 31.487,30.489 31.480,30.489 L30.924,31.452 C30.786,31.691 30.480,31.773 30.241,31.635 Z"/>
</svg>