<svg 
 xmlns="http://www.w3.org/2000/svg"
 xmlns:xlink="http://www.w3.org/1999/xlink"
 width="54px" height="50px">
<path fill-rule="evenodd"  fill="rgb(255, 255, 255)"
 d="M40.040,38.987 C40.035,38.987 39.674,38.988 39.058,38.988 C39.038,38.989 39.020,39.000 39.000,39.000 C38.448,39.000 38.000,38.552 38.000,38.000 C38.000,37.447 38.448,37.000 39.000,37.000 C39.000,37.000 39.000,37.000 39.000,37.000 L39.000,36.989 C39.636,36.989 40.002,36.988 40.002,36.988 C46.714,36.739 52.000,31.253 52.000,24.500 C52.000,17.608 46.391,12.000 39.498,12.000 C33.976,12.000 29.042,15.705 27.500,21.009 C27.420,21.284 27.226,21.512 26.967,21.634 C26.708,21.757 26.409,21.763 26.145,21.648 C25.144,21.218 24.082,21.000 22.988,21.000 C19.457,21.000 16.300,23.369 15.312,26.760 C15.232,27.035 15.038,27.262 14.780,27.385 C14.521,27.507 14.223,27.514 13.959,27.401 C13.339,27.135 12.680,27.001 12.001,27.001 C9.244,27.001 7.000,29.243 7.000,32.000 C7.000,34.757 9.244,37.000 12.001,37.000 C12.622,37.000 13.294,37.000 14.000,37.000 L14.000,37.000 C14.552,37.000 15.000,37.448 15.000,38.000 C15.000,38.552 14.552,39.000 14.000,39.000 C14.000,39.000 14.000,39.000 14.000,39.000 C13.294,39.000 12.622,39.000 12.001,39.000 C8.140,39.000 5.000,35.859 5.000,32.000 C5.000,28.341 7.833,25.363 11.416,25.060 C10.533,23.572 10.000,21.854 10.000,19.998 C10.000,14.475 14.478,9.998 20.001,9.998 C23.680,9.998 26.874,11.999 28.610,14.960 C31.309,11.894 35.250,10.000 39.498,10.000 C47.494,10.000 54.000,16.505 54.000,24.500 C54.000,32.334 47.867,38.697 40.040,38.987 ZM20.000,11.998 C15.582,11.998 12.000,15.580 12.000,19.998 C12.000,21.916 12.704,23.651 13.830,25.029 C15.397,21.429 18.995,19.000 22.988,19.000 C23.990,19.000 24.971,19.147 25.916,19.437 C26.275,18.475 26.739,17.570 27.282,16.723 C26.030,13.941 23.249,11.998 20.000,11.998 ZM29.899,11.514 C29.509,11.905 28.876,11.905 28.485,11.514 C28.095,11.124 28.095,10.491 28.485,10.100 L32.728,5.858 C33.118,5.467 33.751,5.467 34.142,5.858 C34.532,6.248 34.532,6.881 34.142,7.272 L29.899,11.514 ZM20.000,8.000 C19.448,8.000 19.000,7.552 19.000,7.000 L19.000,1.000 C19.000,0.447 19.448,-0.000 20.000,-0.000 C20.552,-0.000 21.000,0.447 21.000,1.000 L21.000,7.000 C21.000,7.552 20.552,8.000 20.000,8.000 ZM10.105,11.511 L5.863,7.269 C5.472,6.878 5.472,6.245 5.863,5.855 C6.253,5.464 6.886,5.464 7.277,5.855 L11.520,10.097 C11.910,10.488 11.910,11.121 11.520,11.511 C11.129,11.902 10.496,11.902 10.105,11.511 ZM8.003,19.999 C8.003,20.551 7.555,20.998 7.003,20.998 L1.003,20.998 C0.451,20.998 0.003,20.551 0.003,19.999 C0.003,19.446 0.451,18.998 1.003,18.998 L7.003,18.998 C7.555,18.998 8.003,19.446 8.003,19.999 ZM14.511,43.983 L15.645,43.983 L15.078,43.001 C14.940,42.761 15.021,42.456 15.261,42.318 C15.500,42.180 15.806,42.261 15.944,42.501 L16.511,43.483 L17.078,42.501 C17.216,42.261 17.522,42.180 17.761,42.318 C18.000,42.456 18.082,42.761 17.944,43.001 L17.377,43.983 L18.511,43.983 C18.787,43.983 19.011,44.206 19.011,44.483 C19.011,44.759 18.787,44.983 18.511,44.983 L17.377,44.983 L17.944,45.965 C18.082,46.204 18.000,46.510 17.761,46.648 C17.522,46.786 17.216,46.704 17.078,46.465 L16.519,45.497 C16.512,45.497 16.506,45.502 16.500,45.502 L15.944,46.465 C15.806,46.704 15.500,46.786 15.261,46.648 C15.021,46.510 14.940,46.204 15.078,45.965 L15.634,45.002 C15.630,44.996 15.631,44.988 15.628,44.983 L14.511,44.983 C14.235,44.983 14.011,44.759 14.011,44.483 C14.011,44.206 14.235,43.983 14.511,43.983 ZM19.533,46.983 L20.667,46.983 L20.100,46.001 C19.962,45.761 20.044,45.456 20.283,45.317 C20.522,45.179 20.828,45.261 20.966,45.501 L21.533,46.483 L22.100,45.501 C22.238,45.261 22.544,45.179 22.783,45.317 C23.022,45.456 23.104,45.761 22.966,46.001 L22.399,46.983 L23.533,46.983 C23.809,46.983 24.033,47.206 24.033,47.483 C24.033,47.759 23.809,47.983 23.533,47.983 L22.399,47.983 L22.966,48.965 C23.104,49.204 23.022,49.510 22.783,49.648 C22.544,49.786 22.238,49.704 22.100,49.465 L21.541,48.497 C21.535,48.497 21.529,48.501 21.522,48.502 L20.966,49.465 C20.828,49.704 20.522,49.786 20.283,49.648 C20.044,49.510 19.962,49.204 20.100,48.965 L20.656,48.002 C20.653,47.996 20.654,47.988 20.651,47.983 L19.533,47.983 C19.257,47.983 19.033,47.759 19.033,47.483 C19.033,47.206 19.257,46.983 19.533,46.983 ZM23.246,43.658 C23.007,43.520 22.925,43.214 23.063,42.975 L23.619,42.012 C23.616,42.006 23.617,41.999 23.613,41.993 L22.496,41.993 C22.220,41.993 21.996,41.769 21.996,41.493 C21.996,41.217 22.220,40.993 22.496,40.993 L23.630,40.993 L23.063,40.011 C22.925,39.772 23.007,39.466 23.246,39.328 C23.485,39.190 23.791,39.272 23.929,39.511 L24.496,40.493 L25.063,39.511 C25.201,39.272 25.507,39.190 25.746,39.328 C25.985,39.466 26.067,39.772 25.929,40.011 L25.362,40.993 L26.496,40.993 C26.772,40.993 26.996,41.217 26.996,41.493 C26.996,41.769 26.772,41.993 26.496,41.993 L25.362,41.993 L25.929,42.975 C26.067,43.214 25.985,43.520 25.746,43.658 C25.507,43.796 25.201,43.714 25.063,43.475 L24.504,42.507 C24.497,42.507 24.492,42.512 24.485,42.512 L23.929,43.475 C23.791,43.714 23.485,43.796 23.246,43.658 ZM27.483,43.983 L28.617,43.983 L28.050,43.001 C27.912,42.761 27.994,42.456 28.233,42.318 C28.473,42.180 28.778,42.261 28.916,42.501 L29.483,43.483 L30.050,42.501 C30.188,42.261 30.494,42.180 30.733,42.318 C30.973,42.456 31.054,42.761 30.916,43.001 L30.349,43.983 L31.483,43.983 C31.760,43.983 31.983,44.206 31.983,44.483 C31.983,44.759 31.760,44.983 31.483,44.983 L30.349,44.983 L30.916,45.965 C31.054,46.204 30.973,46.510 30.733,46.648 C30.494,46.786 30.188,46.704 30.050,46.465 L29.492,45.497 C29.485,45.497 29.479,45.502 29.472,45.502 L28.916,46.465 C28.778,46.704 28.473,46.786 28.233,46.648 C27.994,46.510 27.912,46.204 28.050,45.965 L28.606,45.002 C28.603,44.996 28.604,44.988 28.601,44.983 L27.483,44.983 C27.207,44.983 26.983,44.759 26.983,44.483 C26.983,44.206 27.207,43.983 27.483,43.983 ZM22.005,38.493 C22.005,38.769 21.781,38.993 21.505,38.993 L20.371,38.993 L20.938,39.975 C21.076,40.214 20.994,40.520 20.755,40.658 C20.516,40.796 20.210,40.714 20.072,40.475 L19.513,39.507 C19.506,39.507 19.500,39.512 19.494,39.512 L18.938,40.475 C18.800,40.714 18.494,40.796 18.255,40.658 C18.016,40.520 17.934,40.214 18.072,39.975 L18.628,39.012 C18.624,39.006 18.626,38.999 18.622,38.993 L17.505,38.993 C17.229,38.993 17.005,38.769 17.005,38.493 C17.005,38.217 17.229,37.993 17.505,37.993 L18.639,37.993 L18.072,37.011 C17.934,36.772 18.016,36.466 18.255,36.328 C18.494,36.190 18.800,36.272 18.938,36.511 L19.505,37.493 L20.072,36.511 C20.210,36.272 20.516,36.190 20.755,36.328 C20.994,36.466 21.076,36.772 20.938,37.011 L20.371,37.993 L21.505,37.993 C21.781,37.993 22.005,38.217 22.005,38.493 ZM26.018,32.470 C26.018,32.746 25.794,32.970 25.518,32.970 L24.384,32.970 L24.951,33.952 C25.089,34.191 25.007,34.497 24.768,34.635 C24.529,34.773 24.223,34.691 24.085,34.452 L23.527,33.484 C23.520,33.484 23.514,33.489 23.507,33.489 L22.951,34.452 C22.813,34.691 22.508,34.773 22.268,34.635 C22.029,34.497 21.947,34.191 22.085,33.952 L22.641,32.989 C22.638,32.983 22.639,32.976 22.636,32.970 L21.518,32.970 C21.242,32.970 21.018,32.746 21.018,32.470 C21.018,32.194 21.242,31.970 21.518,31.970 L22.652,31.970 L22.085,30.988 C21.947,30.749 22.029,30.443 22.268,30.305 C22.508,30.167 22.813,30.249 22.951,30.488 L23.518,31.470 L24.085,30.488 C24.223,30.249 24.529,30.167 24.768,30.305 C25.007,30.443 25.089,30.749 24.951,30.988 L24.384,31.970 L25.518,31.970 C25.794,31.970 26.018,32.194 26.018,32.470 ZM31.010,35.470 C31.010,35.746 30.786,35.970 30.510,35.970 L29.375,35.970 L29.942,36.952 C30.081,37.191 29.999,37.497 29.759,37.635 C29.520,37.773 29.215,37.691 29.076,37.452 L28.518,36.484 C28.511,36.484 28.505,36.489 28.499,36.489 L27.942,37.452 C27.804,37.691 27.499,37.773 27.259,37.635 C27.020,37.497 26.938,37.191 27.076,36.952 L27.632,35.989 C27.629,35.983 27.630,35.976 27.627,35.970 L26.510,35.970 C26.233,35.970 26.009,35.746 26.009,35.470 C26.009,35.194 26.233,34.970 26.510,34.970 L27.643,34.970 L27.076,33.988 C26.938,33.749 27.020,33.443 27.259,33.305 C27.499,33.167 27.804,33.249 27.942,33.488 L28.509,34.470 L29.076,33.488 C29.215,33.249 29.520,33.167 29.759,33.305 C29.999,33.443 30.081,33.749 29.942,33.988 L29.375,34.970 L30.510,34.970 C30.786,34.970 31.010,35.194 31.010,35.470 ZM32.632,39.012 C32.628,39.006 32.630,38.999 32.626,38.993 L31.509,38.993 C31.233,38.993 31.009,38.769 31.009,38.493 C31.009,38.217 31.233,37.993 31.509,37.993 L32.643,37.993 L32.076,37.011 C31.938,36.772 32.020,36.466 32.259,36.328 C32.498,36.190 32.804,36.272 32.942,36.511 L33.509,37.493 L34.076,36.511 C34.214,36.272 34.520,36.190 34.759,36.328 C34.998,36.466 35.080,36.772 34.942,37.011 L34.375,37.993 L35.509,37.993 C35.785,37.993 36.009,38.217 36.009,38.493 C36.009,38.769 35.785,38.993 35.509,38.993 L34.375,38.993 L34.942,39.975 C35.080,40.214 34.998,40.520 34.759,40.658 C34.520,40.796 34.214,40.714 34.076,40.475 L33.517,39.507 C33.510,39.507 33.504,39.512 33.498,39.512 L32.942,40.475 C32.804,40.714 32.498,40.796 32.259,40.658 C32.020,40.520 31.938,40.214 32.076,39.975 L32.632,39.012 ZM35.241,34.635 C35.002,34.497 34.920,34.191 35.058,33.952 L35.614,32.989 C35.611,32.983 35.612,32.976 35.609,32.970 L34.491,32.970 C34.215,32.970 33.991,32.746 33.991,32.470 C33.991,32.194 34.215,31.970 34.491,31.970 L35.625,31.970 L35.058,30.988 C34.920,30.749 35.002,30.443 35.241,30.305 C35.480,30.167 35.786,30.249 35.924,30.488 L36.491,31.470 L37.058,30.488 C37.196,30.249 37.502,30.167 37.741,30.305 C37.980,30.443 38.062,30.749 37.924,30.988 L37.357,31.970 L38.491,31.970 C38.767,31.970 38.991,32.194 38.991,32.470 C38.991,32.746 38.767,32.970 38.491,32.970 L37.357,32.970 L37.924,33.952 C38.062,34.191 37.980,34.497 37.741,34.635 C37.502,34.773 37.196,34.691 37.058,34.452 L36.499,33.484 C36.493,33.484 36.487,33.489 36.480,33.489 L35.924,34.452 C35.786,34.691 35.480,34.773 35.241,34.635 Z"/>
</svg>